<?xml version="1.0" encoding="utf-8"?><svg xml:space="preserve" viewBox="0 0 100 100" y="0" x="0" xmlns="http://www.w3.org/2000/svg" id="Layer_1" version="1.1" width="200px" height="200px" xmlns:xlink="http://www.w3.org/1999/xlink" style="width:100%;height:100%;background-size:initial;background-repeat-y:initial;background-repeat-x:initial;background-position-y:initial;background-position-x:initial;background-origin:initial;background-image:initial;background-color:rgb(255, 255, 255);background-clip:initial;background-attachment:initial;animation-play-state:paused" ><g class="ldl-scale" style="transform-origin:50% 50%;transform:rotate(0deg) scale(0.8, 0.8);animation-play-state:paused" ><path fill="#f4e6c8" d="M37.3 80.7l32.1-55.6c1.1-2 .5-4.4-1.5-5.6s-4.4-.5-5.6 1.5L30.2 76.7c-2.1-.7-4.5.2-5.7 2.2-1.3 2.3-.5 5.3 1.8 6.6 1 .6 2.1.8 3.2.6.4 1 1.1 1.9 2.1 2.5 2.3 1.3 5.3.5 6.6-1.8 1.2-2.1.8-4.6-.9-6.1z" style="fill:rgb(244, 230, 200);animation-play-state:paused" ></path>
<g style="animation-play-state:paused" ><path fill="#67503b" d="M71.2 13.2c-14-8.1-28.5-9.3-32.3-2.8l-.1-.1c-3.5 6.9-4.1 14.5-2.3 21.4.6 2.3.2 4.7-1.1 6.7-.2.3-.3.5-.5.8-5.2 9-2.3 20.4 6.5 25.4 8.8 5.1 20.1 1.9 25.3-7.1.2-.3.3-.6.5-.9 1.1-2.1 3-3.7 5.2-4.3 6.9-1.9 13.2-6.3 17.4-12.7l-.1-.1c3.9-6.3-4.4-18.2-18.5-26.3z" style="fill:rgb(103, 80, 59);animation-play-state:paused" ></path>
<ellipse fill="#f47e5f" ry="29.3" rx="13.7" cy="25.1" cx="64.4" transform="rotate(-60 64.381 25.095)" style="fill:rgb(244, 126, 95);animation-play-state:paused" ></ellipse>
<ellipse fill="#f4e6c8" ry="7.8" rx="3.6" cy="25.1" cx="64.4" transform="rotate(-60 64.381 25.095)" style="fill:rgb(244, 230, 200);animation-play-state:paused" ></ellipse></g>
<metadata xmlns:d="https://loading.io/stock/" style="animation-play-state:paused" ><d:name style="animation-play-state:paused" >ham</d:name>
<d:tags style="animation-play-state:paused" >ham,meat,pork,beef,pork knuckle,ham hock,chicken legs,wing stick,schweinshaxe,eisbein,food,gourmet</d:tags>
<d:license style="animation-play-state:paused" >by</d:license>
<d:slug style="animation-play-state:paused" >oark6e</d:slug></metadata></g><!-- generated by https://loading.io/ --></svg>